<?xml version="1.0" encoding="iso-8859-1"?>
<!-- Generator: Adobe Illustrator 19.0.0, SVG Export Plug-In . SVG Version: 6.00 Build 0)  -->
<svg version="1.1" id="Layer_1" xmlns="http://www.w3.org/2000/svg" xmlns:xlink="http://www.w3.org/1999/xlink" x="0px" y="0px"
	 viewBox="0 0 512.001 512.001" style="enable-background:new 0 0 512.001 512.001;" xml:space="preserve">
<circle style="fill:#F6306D;" cx="256.824" cy="440.288" r="63.844"/>
<path style="fill:#B62F78;" d="M232.916,438.178c0.912-27.541,19.169-50.358,43.911-58.488c-5.652-1.863-11.643-3.001-17.891-3.207
	c-35.241-1.168-64.755,26.455-65.922,61.695c-1.168,35.241,26.455,64.755,61.696,65.923c7.7,0.255,15.094-0.935,22.011-3.208
	C250.497,492.248,231.954,467.171,232.916,438.178z"/>
<path style="fill:#FE702D;" d="M315.345,19.984c-16.16-16.161-42.362-16.161-58.523,0c-16.162-16.161-42.363-16.161-58.523,0
	c-16.162,16.162-16.162,42.363,0,58.524l58.523,58.523l58.523-58.523C331.507,62.347,331.507,36.145,315.345,19.984z"/>
<path style="fill:#F92423;" d="M256.822,137.032l58.523-58.523c16.162-16.162,16.162-42.363,0-58.524
	c-16.16-16.161-42.362-16.161-58.523,0"/>
<path d="M256.822,148.153l-64.084-64.083c-19.2-19.201-19.2-50.444,0-69.646c17.441-17.439,44.816-19.038,64.079-4.796
	C265.24,3.378,275.403,0,286.084,0c13.155,0,25.521,5.123,34.823,14.423v0.001c19.2,19.2,19.2,50.443,0,69.644L256.822,148.153z
	 M227.56,15.742c-8.585,0-17.167,3.267-23.701,9.803c-13.07,13.069-13.07,34.334,0,47.404l52.964,52.965l52.964-52.965
	c13.069-13.069,13.069-34.335,0-47.405c-13.069-13.069-34.334-13.07-47.403,0.001l-5.561,5.56l-5.56-5.56
	C244.727,19.01,236.143,15.742,227.56,15.742z"/>
<path style="fill:#FBB516;" d="M142.709,116.323l-11.197-11.043c4.714-4.779,9.73-9.372,14.913-13.654l10.018,12.123
	C151.67,107.693,147.049,111.923,142.709,116.323z"/>
<path style="fill:#FE702D;" d="M104.886,172.1l-14.412-6.295c6.684-15.303,15.331-29.792,25.703-43.066l12.392,9.681
	C119.01,144.657,111.041,158.007,104.886,172.1z"/>
<path style="fill:#F92423;" d="M170.796,372.771l-15.61,1.917l1.566,12.758c-27.664-22.691-47.89-52.558-58.617-86.65
	c-10.916-34.69-11.383-71.424-1.352-106.231l-15.112-4.355c-10.889,37.788-10.383,77.659,1.464,115.307
	c11.698,37.177,33.793,69.726,64.019,94.397l-12.914,1.586l1.917,15.61l39.489-4.849L170.796,372.771z"/>
<path style="fill:#A645CB;" d="M365.576,415.366l-10.018-12.125c4.768-3.939,9.389-8.169,13.733-12.574l11.197,11.043
	C375.771,406.494,370.753,411.089,365.576,415.366z"/>
<path style="fill:#B62F78;" d="M395.825,384.251l-12.392-9.681c9.562-12.239,17.53-25.589,23.683-39.679l14.412,6.295
	C414.847,356.483,406.199,370.972,395.825,384.251z"/>
<path style="fill:#F6306D;" d="M428.866,201.474c-11.698-37.176-33.793-69.725-64.017-94.395l12.913-1.585l-1.917-15.61
	l-39.489,4.849l4.849,39.489l15.61-1.917l-1.566-12.758c27.663,22.691,47.889,52.558,58.617,86.649
	c10.916,34.69,11.383,71.424,1.352,106.231l15.112,4.355C441.218,278.993,440.713,239.121,428.866,201.474z"/>
<path d="M256.822,368.585c-39.541,0-71.707,32.168-71.707,71.708c0,39.539,32.168,71.707,71.707,71.707s71.707-32.168,71.707-71.707
	C328.53,400.752,296.362,368.585,256.822,368.585z M312.803,440.293c0,10.789-3.076,20.87-8.386,29.426l-39.92-33.267v-51.602
	C291.743,388.604,312.803,412.029,312.803,440.293z M248.769,495.685c-11.244-1.627-21.419-6.602-29.47-13.888l29.47-24.558V495.685
	z M264.496,456.923l29.849,24.874c-8.141,7.367-18.454,12.366-29.849,13.937V456.923L264.496,456.923z M248.769,384.899v51.869
	l-39.543,32.951c-5.31-8.556-8.386-18.637-8.386-29.426C200.841,412.159,221.704,388.816,248.769,384.899z"/>
<path style="fill:#FFFFFF;" d="M277.659,94.025l-11.121-11.121l27.932-27.932c1.531-1.53,2.374-3.564,2.374-5.725
	c0-2.163-0.843-4.197-2.373-5.727L305.59,32.4c4.501,4.5,6.979,10.483,6.979,16.847c0,6.363-2.478,12.346-6.979,16.846
	L277.659,94.025z"/>
<g>
</g>
<g>
</g>
<g>
</g>
<g>
</g>
<g>
</g>
<g>
</g>
<g>
</g>
<g>
</g>
<g>
</g>
<g>
</g>
<g>
</g>
<g>
</g>
<g>
</g>
<g>
</g>
<g>
</g>
</svg>
